<svg width="14" height="14" viewBox="0 0 14 14" fill="none" xmlns="http://www.w3.org/2000/svg">
<path d="M7.29167 4.10754C7.19681 4.09163 7.09937 4.08334 7 4.08334C6.0335 4.08334 5.25 4.86685 5.25 5.83334C5.25 6.79984 6.0335 7.58334 7 7.58334C7.9665 7.58334 8.75 6.79984 8.75 5.83334C8.75 5.73397 8.74172 5.63653 8.7258 5.54168" stroke="#1C274C" stroke-width="1.5" stroke-linecap="round"/>
<path d="M2.91668 8.87604C2.53899 7.91128 2.33334 6.8841 2.33334 5.91691C2.33334 3.29342 4.42268 1.16666 7.00001 1.16666C9.57734 1.16666 11.6667 3.29342 11.6667 5.91691C11.6667 8.51985 10.1772 11.5572 7.85339 12.6434C7.31166 12.8966 6.68836 12.8966 6.14663 12.6434C5.40444 12.2965 4.74736 11.7506 4.19673 11.0833" stroke="#1C274C" stroke-width="1.5" stroke-linecap="round"/>
</svg>
