<svg width="60" height="60" viewBox="0 0 60 60" fill="none" xmlns="http://www.w3.org/2000/svg">
<rect width="60" height="60" rx="16" fill="#550066"/>
<path fill-rule="evenodd" clip-rule="evenodd" d="M16.6667 30C16.6667 30.5138 17.0832 30.9302 17.5969 30.9302H20.1206C20.5611 35.6678 24.3322 39.439 29.0698 39.8794V42.4031C29.0698 42.9169 29.4863 43.3333 30 43.3333C30.5138 43.3333 30.9303 42.9169 30.9303 42.4031V39.8794C35.6678 39.439 39.439 35.6678 39.8795 30.9302H42.4031C42.9169 30.9302 43.3334 30.5138 43.3334 30C43.3334 29.4862 42.9169 29.0698 42.4031 29.0698H39.8795C39.439 24.3322 35.6678 20.561 30.9303 20.1205V17.5969C30.9303 17.0831 30.5138 16.6667 30 16.6667C29.4863 16.6667 29.0698 17.0831 29.0698 17.5969V20.1205C24.3322 20.561 20.5611 24.3322 20.1206 29.0698H17.5969C17.0832 29.0698 16.6667 29.4862 16.6667 30ZM25.3489 30C25.3489 27.4312 27.4313 25.3488 30 25.3488C32.5688 25.3488 34.6512 27.4312 34.6512 30C34.6512 32.5688 32.5688 34.6512 30 34.6512C27.4313 34.6512 25.3489 32.5688 25.3489 30Z" fill="#FFF6E5"/>
<path d="M27.2093 30C27.2093 28.4587 28.4588 27.2093 30 27.2093C31.5413 27.2093 32.7907 28.4587 32.7907 30C32.7907 31.5413 31.5413 32.7907 30 32.7907C28.4588 32.7907 27.2093 31.5413 27.2093 30Z" fill="#FFF6E5"/>
</svg>
