<svg width="15" height="15" viewBox="0 0 15 15" fill="none" xmlns="http://www.w3.org/2000/svg">
<path d="M13.125 4.47643C13.125 3.8242 13.125 3.49808 12.948 3.25256C12.7711 3.00704 12.4617 2.90391 11.8429 2.69765L11.1149 2.45499C10.2605 2.17018 9.83329 2.02777 9.40317 2.08537C8.97306 2.14297 8.59836 2.39277 7.84897 2.89237L6.98498 3.46836C6.39996 3.85837 6.10744 4.05338 5.77928 4.13095C5.65876 4.15944 5.53571 4.17592 5.41194 4.18015C5.07493 4.19165 4.74141 4.08048 4.07438 3.85814C3.20068 3.5669 2.76383 3.42129 2.43143 3.56916C2.31342 3.62166 2.20753 3.69799 2.1204 3.79334C1.875 4.06192 1.875 4.5224 1.875 5.44336V7.98348M13.125 6.875V9.55666C13.125 10.4776 13.125 10.9381 12.8796 11.2067C12.7925 11.302 12.6866 11.3784 12.5686 11.4309C12.2362 11.5787 11.7993 11.4331 10.9256 11.1419C10.2586 10.9195 9.92507 10.8084 9.58806 10.8199C9.46429 10.8241 9.34124 10.8406 9.22072 10.8691C8.89256 10.9466 8.60004 11.1416 8.01502 11.5317L7.15103 12.1077C6.40164 12.6073 6.02694 12.857 5.59683 12.9146C5.16671 12.9722 4.73949 12.8298 3.88505 12.545L3.15707 12.3024C2.5383 12.0961 2.22892 11.993 2.05196 11.7475C1.88442 11.515 1.8755 11.2103 1.87503 10.625" stroke="#1C274C" stroke-width="1.5" stroke-linecap="round"/>
<path d="M9.375 2.1875V4.375M9.375 10.625V6.875" stroke="#1C274C" stroke-width="1.5" stroke-linecap="round"/>
<path d="M5.625 12.8125V10.625M5.625 4.375V8.125" stroke="#1C274C" stroke-width="1.5" stroke-linecap="round"/>
</svg>
