<svg width="14" height="14" viewBox="0 0 14 14" fill="none" xmlns="http://www.w3.org/2000/svg">
<path fill-rule="evenodd" clip-rule="evenodd" d="M10.3947 11.492C10.3426 10.8537 10.8708 10.3209 11.5036 10.3734C11.6133 10.3825 11.7447 10.4224 11.8784 10.4631C11.8913 10.467 11.9042 10.4709 11.9172 10.4748C11.9288 10.4784 11.9405 10.4819 11.9522 10.4854C12.0751 10.5223 12.1974 10.5591 12.2903 10.6093C12.8243 10.8977 12.9966 11.5868 12.6622 12.0961C12.604 12.1849 12.5136 12.2757 12.4228 12.3671C12.4142 12.3758 12.4055 12.3844 12.3969 12.3931C12.3883 12.4018 12.3797 12.4105 12.3711 12.4192C12.2806 12.5108 12.1905 12.602 12.1025 12.6607C11.5976 12.998 10.9144 12.8242 10.6286 12.2856C10.5788 12.1918 10.5423 12.0685 10.5057 11.9445C10.5022 11.9327 10.4987 11.9209 10.4952 11.9092C10.4914 11.8961 10.4875 11.8831 10.4836 11.8701C10.4433 11.7352 10.4037 11.6027 10.3947 11.492Z" fill="#8898AA"/>
<path d="M11.7412 6.50002C11.7412 9.44555 9.37401 11.8334 6.45393 11.8334C3.53385 11.8334 1.16666 9.44555 1.16666 6.50002C1.16666 3.55448 3.53385 1.16666 6.45393 1.16666C9.37401 1.16666 11.7412 3.55448 11.7412 6.50002Z" fill="#8898AA"/>
</svg>
